# xmcd
#
# Track frame offsets: 
#        150
#        17087
#        32857
#        49785
#        69340
#        82765
#        98282
#        112985
#        131857
#        144212
#        158017
#        173755
#        200927
#
# Disc length: 2881 seconds
#
# Revision: 5
# Processed by: cddbd v1.5.1PL0 Copyright (c) Steve Scherf et al.
# Submitted via: ExactAudioCopy v0.95a5
#
DISCID=a00b3f0d
DTITLE=Various Artist - Antone's Women- Bringing You the Best In Blue
DTITLE=s
DYEAR=1992
DGENRE=Blues
TTITLE0=Angela Strehli, Lou Ann Barton, Marcia Ball - Something's Got 
TTITLE0=a Hold On Me
TTITLE1=Sarah Brown, Angela Strehli, Lou Ann Barton, Marcia Ball - Hur
TTITLE1=tback
TTITLE2=Angela Strehli - Bigtown Playboy
TTITLE3=Angela Strehli - Neighbor, Neighbor
TTITLE4=Lou Ann Barton - Down South In New Orleans
TTITLE5=Lou Ann Barton - You'll Lose a Good Thing
TTITLE6=Barbara Lynn - I'm a Good Woman
TTITLE7=Sue Foley - Queen Bee
TTITLE8=Sue Foley with Angela Strehli - But I Forgive You
TTITLE9=Sue Foley - Cuban Getaway
TTITLE10=Toni Price - Twelve Bar Blues
TTITLE11=Toni Price - Richest One
TTITLE12=Lavelle White - Wrappin' Up Our Love
EXTD=LABEL =Antone's Records and Tapes\nID =ANT9902\nUPC =04989-19902
EXTD=29\nCOPYRIGHT =1992
EXTT0=From "Dreams Come True".
EXTT1=
EXTT2=From "Soul Shake".
EXTT3=
EXTT4=
EXTT5=From "Read My Lips".
EXTT6=
EXTT7=From "Young Girl Blues".
EXTT8=From "Young Girl Blues".
EXTT9=From "Young Girl Blues".
EXTT10=
EXTT11=
EXTT12=
PLAYORDER=
